<?xml version="1.0" encoding="iso-8859-1"?>
<!-- Generator: Adobe Illustrator 21.0.0, SVG Export Plug-In . SVG Version: 6.00 Build 0)  -->
<svg xmlns="http://www.w3.org/2000/svg" xmlns:xlink="http://www.w3.org/1999/xlink" version="1.1" id="Capa_1" x="0px" y="0px" viewBox="0 0 509.339 509.339" style="enable-background:new 0 0 509.339 509.339;" xml:space="preserve" width="512" height="512">
<g>
	<path style="fill:#F0BCA6;" d="M336.54,433.965H95.206c-19.624,0-35.681-16.056-35.681-35.681l0,0   c0-19.625,16.056-35.681,35.681-35.681H336.54c19.625,0,35.681,16.056,35.681,35.681l0,0   C372.221,417.908,356.165,433.965,336.54,433.965z"/>
	<circle style="fill:#F0BCA6;" cx="214.97" cy="315.809" r="79.043"/>
	<path style="fill:#B75423;" d="M214.969,236.766c-43.654,0-79.043,35.389-79.043,79.043h158.086   C294.013,272.154,258.624,236.766,214.969,236.766z"/>
	<path style="fill:#F0BCA6;" d="M417.145,146.246c7.737-4.193,12.992-12.385,12.992-21.804c0-2.548-0.386-5.006-1.1-7.319   l-7.915-7.915v0l-20.443-20.443l-12.746,12.589h-51.945l-42.096,42.096c-5.645,5.645-5.645,14.797,0,20.443   c5.644,5.644,14.797,5.645,20.443,0l20.514-20.514"/>
	<path style="fill:#F0BCA6;" d="M336.174,142.051l11.788-11.788h33.301c2.62,10.878,12.408,18.962,24.09,18.962   c4.269,0,8.286-1.079,11.793-2.98"/>
	<path style="fill:#F0BCA6;" d="M349.302,120.368h53.974c7.983,0,14.455,6.472,14.455,14.455c0,7.983-6.472,14.455-14.455,14.455   h-53.974c-7.983,0-14.455-6.472-14.455-14.455C334.847,126.84,341.319,120.368,349.302,120.368z"/>
	<polygon style="fill:#ECEDEF;" points="480.401,7.5 471.235,7.5 413.09,65.645 413.09,65.645 395.757,82.978 438.439,125.66    455.772,108.327 455.772,108.327 455.772,108.326 455.974,108.125 455.963,108.113 480.349,75.061  "/>
	<polygon style="fill:#D0CFD1;" points="480.401,7.5 471.235,7.5 457.39,21.344 457.349,75.061 432.963,108.113 432.974,108.125    432.772,108.326 432.772,108.327 426.939,114.16 438.439,125.66 455.772,108.327 455.772,108.326 455.974,108.125 455.963,108.113    480.349,75.061  "/>
	<path d="M366.657,424.848c-1.378,0-2.771-0.379-4.02-1.174c-3.494-2.224-4.524-6.86-2.3-10.354   c2.868-4.505,4.384-9.705,4.384-15.036c0-15.539-12.642-28.181-28.181-28.181h-57.863c-4.142,0-7.5-3.358-7.5-7.5   s3.358-7.5,7.5-7.5h57.863c23.81,0,43.181,19.371,43.181,43.181c0,8.189-2.327,16.173-6.729,23.09   C371.562,423.62,369.136,424.848,366.657,424.848z"/>
	<path style="fill:#B75423;" d="M214.969,236.766c-43.654,0-79.043,35.389-79.043,79.043h158.086   C294.013,272.154,258.624,236.766,214.969,236.766z"/>
	<path d="M366.657,424.848c-1.378,0-2.771-0.379-4.02-1.174c-3.494-2.224-4.524-6.86-2.3-10.354   c2.868-4.505,4.384-9.705,4.384-15.036c0-15.539-12.642-28.181-28.181-28.181h-57.863c-4.142,0-7.5-3.358-7.5-7.5   s3.358-7.5,7.5-7.5h57.863c23.81,0,43.181,19.371,43.181,43.181c0,8.189-2.327,16.173-6.729,23.09   C371.562,423.62,369.136,424.848,366.657,424.848z"/>
	<path style="fill:#D47A3D;" d="M214.969,236.766c-43.654,0-79.043,35.389-79.043,79.043h158.086   C294.013,272.154,258.624,236.766,214.969,236.766z"/>
	<path style="fill:#E9AFA2;" d="M336.54,362.603h-23c19.625,0,35.681,16.056,35.681,35.681l0,0   c0,19.625-16.056,35.681-35.681,35.681h23c19.625,0,35.681-16.057,35.681-35.681l0,0   C372.221,378.659,356.165,362.603,336.54,362.603z"/>
	<path style="fill:#E9AFA2;" d="M214.969,236.766c-3.907,0-7.745,0.295-11.5,0.842c38.202,5.57,67.543,38.454,67.543,78.201   c0,39.747-29.341,72.631-67.543,78.201c3.755,0.547,7.593,0.842,11.5,0.842c43.654,0,79.043-35.389,79.043-79.043   C294.013,272.154,258.624,236.766,214.969,236.766z"/>
	<path style="fill:#B75423;" d="M214.969,236.766c-3.907,0-7.745,0.295-11.5,0.842c38.202,5.57,67.543,38.454,67.543,78.201h23   C294.013,272.154,258.624,236.766,214.969,236.766z"/>
	<path d="M485.706,2.199C484.299,0.791,482.391,0,480.401,0h-9.166c-1.989,0-3.897,0.79-5.303,2.197l-75.478,75.478   c-1.407,1.406-2.197,3.314-2.197,5.303s0.79,3.897,2.197,5.303l0.02,0.02l-5.621,5.552h-7.65c-4.142,0-7.5,3.358-7.5,7.5   s3.358,7.5,7.5,7.5h10.729c1.973,0,3.867-0.777,5.271-2.164l7.443-7.352l21.646,21.646c0.229,1.132,0.346,2.29,0.346,3.458   c0,9.531-7.753,17.284-17.284,17.284c-0.291,0-0.577,0.021-0.859,0.053h-55.191c-3.835,0-6.956-3.12-6.956-6.955   s3.12-6.955,6.956-6.955h27.9c4.142,0,7.5-3.358,7.5-7.5s-3.358-7.5-7.5-7.5h-27.9c-12.106,0-21.956,9.849-21.956,21.955   c0,1.682,0.196,3.318,0.556,4.892l-18.874,18.873c-1.314,1.313-3.061,2.037-4.918,2.037c-1.857,0-3.604-0.724-4.917-2.037   c-1.314-1.314-2.038-3.061-2.038-4.918c0-1.857,0.724-3.604,2.037-4.917l39.899-39.899h8.109c4.142,0,7.5-3.358,7.5-7.5   s-3.358-7.5-7.5-7.5h-11.216c-1.989,0-3.897,0.79-5.303,2.197l-42.096,42.096c-4.147,4.146-6.431,9.66-6.431,15.524   s2.284,11.378,6.43,15.525c4.146,4.146,9.66,6.43,15.524,6.431c0,0,0,0,0.001,0c5.864,0,11.378-2.284,15.524-6.431l16.682-16.682   c3.639,2.678,8.129,4.265,12.984,4.265h58.667c0.932,0,1.82-0.178,2.643-0.488c12.509-2.059,22.614-11.331,25.892-23.39   c0.633,0.168,1.283,0.26,1.934,0.26c1.919,0,3.839-0.732,5.303-2.197l17.535-17.535c0.391-0.39,0.729-0.813,1.015-1.26   l24.092-32.654c0.95-1.288,1.464-2.846,1.465-4.447l0.052-67.561C487.902,5.516,487.113,3.606,485.706,2.199z M472.851,72.591   l-22.652,30.703l-11.76,11.76l-32.076-32.075l66.531-66.531L472.851,72.591z"/>
	<path d="M273.401,227.809c-0.938,0-1.891-0.177-2.813-0.551c-3.839-1.555-5.69-5.928-4.135-9.767   c0.411-1.015,0.402-2.129-0.025-3.137c-0.427-1.009-1.221-1.791-2.236-2.202c-2.094-0.848-4.49,0.166-5.339,2.261   c-1.555,3.84-5.929,5.691-9.767,4.135c-3.839-1.555-5.69-5.928-4.135-9.767c3.955-9.76,15.111-14.485,24.874-10.531   c4.729,1.916,8.428,5.558,10.417,10.255s2.03,9.889,0.114,14.618C279.174,226.04,276.366,227.809,273.401,227.809z"/>
	<path d="M296.202,242.7c-0.938,0-1.891-0.177-2.813-0.551c-3.839-1.555-5.69-5.928-4.135-9.767   c3.096-7.644,3.031-16.037-0.185-23.631s-9.196-13.483-16.841-16.58s-16.037-3.031-23.632,0.185s-13.483,9.196-16.58,16.841   c-1.555,3.839-5.927,5.693-9.767,4.135c-3.839-1.555-5.69-5.928-4.135-9.767c4.601-11.358,13.349-20.244,24.634-25.022   s23.754-4.876,35.112-0.274c11.357,4.601,20.244,13.349,25.022,24.633s4.875,23.754,0.274,35.112   C301.975,240.93,299.167,242.7,296.202,242.7z"/>
	<path style="fill:#F9CD45;" d="M356.945,501.839H71.187c-23.237,0-42.249-19.012-42.249-42.249l0,0   c0-23.237,19.012-42.249,42.249-42.249h285.758c23.237,0,42.249,19.012,42.249,42.249l0,0   C399.194,482.827,380.182,501.839,356.945,501.839z"/>
	<path style="fill:#FFAC1F;" d="M356.945,417.341h-23c23.237,0,42.249,19.012,42.249,42.249l0,0   c0,23.237-19.012,42.249-42.249,42.249h23c23.237,0,42.249-19.012,42.249-42.249l0,0   C399.194,436.353,380.182,417.341,356.945,417.341z"/>
	<path d="M376.738,413.959c1.951-4.974,2.983-10.277,2.983-15.676c0-23.81-19.371-43.181-43.181-43.181h-44.474   c6.038-11.798,9.447-25.156,9.447-39.294c0-47.72-38.823-86.543-86.543-86.543c-47.72,0-86.543,38.823-86.543,86.543   c0,14.139,3.409,27.496,9.447,39.294H95.207c-23.81,0-43.181,19.371-43.181,43.181c0,4.958,0.856,9.829,2.501,14.437   c-19.261,6.867-33.089,25.28-33.089,46.87c0,27.432,22.317,49.749,49.749,49.749h45.518c4.142,0,7.5-3.358,7.5-7.5   s-3.358-7.5-7.5-7.5H71.187c-19.161,0-34.749-15.588-34.749-34.749c0-17.483,12.981-31.985,29.809-34.392   c0.091-0.011,0.182-0.021,0.273-0.035c1.528-0.206,3.083-0.322,4.666-0.322h285.758c19.161,0,34.749,15.588,34.749,34.749   c0,19.161-15.588,34.749-34.749,34.749h-210.24c-4.142,0-7.5,3.358-7.5,7.5s3.358,7.5,7.5,7.5h210.24   c27.432,0,49.749-22.317,49.749-49.749C406.694,439.19,394.347,421.628,376.738,413.959z M214.97,244.266   c36.916,0,67.387,28.106,71.148,64.043h-53.509c-4.142,0-7.5,3.358-7.5,7.5s3.358,7.5,7.5,7.5h53.509   c-3.761,35.937-34.232,64.043-71.148,64.043c-36.916,0-67.387-28.106-71.148-64.043h58.788c4.142,0,7.5-3.358,7.5-7.5   s-3.358-7.5-7.5-7.5h-58.788C147.583,272.372,178.054,244.266,214.97,244.266z M71.187,409.841c-0.549,0-1.092,0.024-1.637,0.042   c-1.656-3.63-2.525-7.571-2.525-11.599c0-15.539,12.642-28.181,28.181-28.181h52.424c15.878,19.654,40.164,32.249,67.339,32.249   c27.175,0,51.461-12.595,67.339-32.249h54.232c15.539,0,28.181,12.642,28.181,28.181c0,4.106-0.908,8.13-2.632,11.823   c-1.692-0.174-3.407-0.266-5.144-0.266H71.187z"/>
</g>















</svg>
